<svg width="80" height="80" viewBox="0 0 80 80" fill="none" xmlns="http://www.w3.org/2000/svg">
<g clip-path="url(#clip0_407_744)">
<circle cx="8" cy="36.1901" r="4" fill="#0069FF"/>
<path d="M2.41861 46.0144C2.41861 43.4573 4.49153 41.3844 7.0486 41.3844H8.95141C11.5085 41.3844 13.5814 43.4573 13.5814 46.0144V46.2569C13.5814 47.1093 12.8904 47.8002 12.0381 47.8002H3.96194C3.10958 47.8002 2.41861 47.1093 2.41861 46.2569V46.0144Z" fill="#0069FF"/>
</g>
<g clip-path="url(#clip1_407_744)">
<circle cx="24" cy="36.1901" r="4" fill="#0069FF"/>
<path d="M18.4186 46.0144C18.4186 43.4573 20.4915 41.3844 23.0486 41.3844H24.9514C27.5085 41.3844 29.5814 43.4573 29.5814 46.0144V46.2569C29.5814 47.1093 28.8904 47.8002 28.0381 47.8002H19.9619C19.1096 47.8002 18.4186 47.1093 18.4186 46.2569V46.0144Z" fill="#0069FF"/>
</g>
<g clip-path="url(#clip2_407_744)">
<circle cx="40" cy="36.1901" r="4" fill="#0069FF"/>
<path d="M34.4186 46.0144C34.4186 43.4573 36.4915 41.3844 39.0486 41.3844H40.9514C43.5085 41.3844 45.5814 43.4573 45.5814 46.0144V46.2569C45.5814 47.1093 44.8904 47.8002 44.0381 47.8002H35.9619C35.1096 47.8002 34.4186 47.1093 34.4186 46.2569V46.0144Z" fill="#0069FF"/>
</g>
<g clip-path="url(#clip3_407_744)">
<path fill-rule="evenodd" clip-rule="evenodd" d="M48.1992 39.9999C48.1992 39.6685 48.4678 39.3999 48.7992 39.3999H63.1992C63.5306 39.3999 63.7992 39.6685 63.7992 39.9999C63.7992 40.3313 63.5306 40.5999 63.1992 40.5999H48.7992C48.4678 40.5999 48.1992 40.3313 48.1992 39.9999Z" fill="#0069FF"/>
<path fill-rule="evenodd" clip-rule="evenodd" d="M58.7753 35.5756C59.0097 35.3413 59.3896 35.3413 59.6239 35.5756L63.6239 39.5756C63.8582 39.81 63.8582 40.1899 63.6239 40.4242L59.6239 44.4242C59.3896 44.6585 59.0097 44.6585 58.7753 44.4242C58.541 44.1899 58.541 43.81 58.7753 43.5756L62.3511 39.9999L58.7753 36.4242C58.541 36.1899 58.541 35.81 58.7753 35.5756Z" fill="#0069FF"/>
</g>
<g clip-path="url(#clip4_407_744)">
<path fill-rule="evenodd" clip-rule="evenodd" d="M72 39.0001C73.5519 39.0001 74.81 37.742 74.81 36.1901C74.81 34.6381 73.5519 33.3801 72 33.3801C70.4481 33.3801 69.19 34.6381 69.19 36.1901C69.19 37.742 70.4481 39.0001 72 39.0001ZM72 40.1901C74.2091 40.1901 76 38.3992 76 36.1901C76 33.9809 74.2091 32.1901 72 32.1901C69.7909 32.1901 68 33.9809 68 36.1901C68 38.3992 69.7909 40.1901 72 40.1901Z" fill="#0069FF"/>
<path fill-rule="evenodd" clip-rule="evenodd" d="M72.9514 42.5744H71.0486C69.1487 42.5744 67.6086 44.1145 67.6086 46.0144V46.2569C67.6086 46.452 67.7668 46.6102 67.9619 46.6102H76.0381C76.2332 46.6102 76.3914 46.452 76.3914 46.2569V46.0144C76.3914 44.1145 74.8513 42.5744 72.9514 42.5744ZM71.0486 41.3844C68.4915 41.3844 66.4186 43.4573 66.4186 46.0144V46.2569C66.4186 47.1093 67.1096 47.8002 67.9619 47.8002H76.0381C76.8904 47.8002 77.5814 47.1093 77.5814 46.2569V46.0144C77.5814 43.4573 75.5085 41.3844 72.9514 41.3844H71.0486Z" fill="#0069FF"/>
</g>
<defs>
<clipPath id="clip0_407_744">
<rect width="16" height="16" fill="white" transform="translate(0 32)"/>
</clipPath>
<clipPath id="clip1_407_744">
<rect width="16" height="16" fill="white" transform="translate(16 32)"/>
</clipPath>
<clipPath id="clip2_407_744">
<rect width="16" height="16" fill="white" transform="translate(32 32)"/>
</clipPath>
<clipPath id="clip3_407_744">
<rect width="16" height="16" fill="white" transform="translate(48 32)"/>
</clipPath>
<clipPath id="clip4_407_744">
<rect width="16" height="16" fill="white" transform="translate(64 32)"/>
</clipPath>
</defs>
</svg>
