<svg width="80" height="80" viewBox="0 0 80 80" fill="none" xmlns="http://www.w3.org/2000/svg">
<path d="M8.5302 35.4669C7.12116 37.6198 6.30188 40.1935 6.30188 42.9586C6.30188 47.4888 8.50094 51.5053 11.8898 53.9989C12.092 53.6543 12.3376 53.3381 12.619 53.0579C9.51057 50.7823 7.49188 47.1062 7.49188 42.9586C7.49188 40.4719 8.21753 38.1547 9.46864 36.2072C9.06562 36.0958 8.72879 35.825 8.5302 35.4669Z" fill="#0069FF"/>
<path d="M20.6455 30.4669C23.6928 30.6218 26.4523 31.8673 28.5414 33.8208C28.7174 33.4556 28.9339 33.1123 29.1852 32.7963C26.7555 30.5988 23.534 29.2605 20 29.2605C19.7663 29.2605 19.534 29.2664 19.3031 29.2779C19.8244 29.5838 20.2805 29.9887 20.6455 30.4669Z" fill="#0069FF"/>
<path d="M30.7903 49.2889C29.318 51.7932 26.9988 53.7396 24.2262 54.7348C24.3627 55.1044 24.4534 55.4963 24.4914 55.9034C27.8081 54.7528 30.5458 52.3634 32.1509 49.2889H30.7903Z" fill="#0069FF"/>
<g clip-path="url(#clip0_407_1439)">
<g clip-path="url(#clip1_407_1439)">
<circle cx="15" cy="25.1663" r="3.5" fill="#0069FF" fill-opacity="0.5"/>
<path d="M10.1163 33.9218C10.1163 31.5964 12.0013 29.7114 14.3267 29.7114H15.6733C17.9987 29.7114 19.8837 31.5964 19.8837 33.9218C19.8837 34.6969 19.2554 35.3252 18.4803 35.3252H11.5197C10.7446 35.3252 10.1163 34.6969 10.1163 33.9218Z" fill="#0069FF" fill-opacity="0.5"/>
</g>
</g>
<g clip-path="url(#clip2_407_1439)">
<g clip-path="url(#clip3_407_1439)">
<circle cx="17.8837" cy="48.1663" r="3.5" fill="#0069FF" fill-opacity="0.5"/>
<path d="M13 56.9218C13 54.5964 14.8851 52.7114 17.2104 52.7114H18.5571C20.8824 52.7114 22.7675 54.5964 22.7675 56.9218C22.7675 57.6969 22.1391 58.3252 21.364 58.3252H14.4035C13.6284 58.3252 13 57.6969 13 56.9218Z" fill="#0069FF" fill-opacity="0.5"/>
</g>
</g>
<g clip-path="url(#clip4_407_1439)">
<g clip-path="url(#clip5_407_1439)">
<circle cx="33.6981" cy="36.1899" r="4" fill="#0069FF"/>
<path d="M28.1167 46.0143C28.1167 43.4572 30.1896 41.3843 32.7467 41.3843H34.6495C37.2066 41.3843 39.2795 43.4572 39.2795 46.0143V46.2568C39.2795 47.1091 38.5885 47.8001 37.7362 47.8001H29.6601C28.8077 47.8001 28.1167 47.1091 28.1167 46.2568V46.0143Z" fill="#0069FF"/>
</g>
</g>
<g clip-path="url(#clip6_407_1439)">
<path fill-rule="evenodd" clip-rule="evenodd" d="M42.1992 39.9999C42.1992 39.6685 42.4678 39.3999 42.7992 39.3999H57.1992C57.5306 39.3999 57.7992 39.6685 57.7992 39.9999C57.7992 40.3313 57.5306 40.5999 57.1992 40.5999H42.7992C42.4678 40.5999 42.1992 40.3313 42.1992 39.9999Z" fill="#0069FF"/>
<path fill-rule="evenodd" clip-rule="evenodd" d="M52.7753 35.5756C53.0097 35.3413 53.3896 35.3413 53.6239 35.5756L57.6239 39.5756C57.8582 39.81 57.8582 40.1899 57.6239 40.4242L53.6239 44.4242C53.3896 44.6585 53.0097 44.6585 52.7753 44.4242C52.541 44.1899 52.541 43.81 52.7753 43.5756L56.3511 39.9999L52.7753 36.4242C52.541 36.1899 52.541 35.81 52.7753 35.5756Z" fill="#0069FF"/>
</g>
<g clip-path="url(#clip7_407_1439)">
<path fill-rule="evenodd" clip-rule="evenodd" d="M66 39.0001C67.5519 39.0001 68.81 37.742 68.81 36.1901C68.81 34.6381 67.5519 33.3801 66 33.3801C64.4481 33.3801 63.19 34.6381 63.19 36.1901C63.19 37.742 64.4481 39.0001 66 39.0001ZM66 40.1901C68.2091 40.1901 70 38.3992 70 36.1901C70 33.9809 68.2091 32.1901 66 32.1901C63.7909 32.1901 62 33.9809 62 36.1901C62 38.3992 63.7909 40.1901 66 40.1901Z" fill="#0069FF"/>
<path fill-rule="evenodd" clip-rule="evenodd" d="M66.9514 42.5744H65.0486C63.1487 42.5744 61.6086 44.1145 61.6086 46.0144V46.2569C61.6086 46.452 61.7668 46.6102 61.9619 46.6102H70.0381C70.2332 46.6102 70.3914 46.452 70.3914 46.2569V46.0144C70.3914 44.1145 68.8513 42.5744 66.9514 42.5744ZM65.0486 41.3844C62.4915 41.3844 60.4186 43.4573 60.4186 46.0144V46.2569C60.4186 47.1093 61.1096 47.8002 61.9619 47.8002H70.0381C70.8904 47.8002 71.5814 47.1093 71.5814 46.2569V46.0144C71.5814 43.4573 69.5085 41.3844 66.9514 41.3844H65.0486Z" fill="#0069FF"/>
</g>
<defs>
<clipPath id="clip0_407_1439">
<rect width="14" height="14" fill="white" transform="translate(8 21.5)"/>
</clipPath>
<clipPath id="clip1_407_1439">
<rect width="14" height="14" fill="white" transform="translate(8 21.5)"/>
</clipPath>
<clipPath id="clip2_407_1439">
<rect width="14" height="14" fill="white" transform="translate(10.8837 44.5)"/>
</clipPath>
<clipPath id="clip3_407_1439">
<rect width="14" height="14" fill="white" transform="translate(10.8837 44.5)"/>
</clipPath>
<clipPath id="clip4_407_1439">
<rect width="16" height="16" fill="white" transform="translate(25.6981 31.9999)"/>
</clipPath>
<clipPath id="clip5_407_1439">
<rect width="16" height="16" fill="white" transform="translate(25.6981 31.9999)"/>
</clipPath>
<clipPath id="clip6_407_1439">
<rect width="16" height="16" fill="white" transform="translate(42 32)"/>
</clipPath>
<clipPath id="clip7_407_1439">
<rect width="16" height="16" fill="white" transform="translate(58 32)"/>
</clipPath>
</defs>
</svg>
